<svg xmlns="http://www.w3.org/2000/svg" version="1.1" xmlns:xlink="http://www.w3.org/1999/xlink" xmlns:svgjs="http://svgjs.dev/svgjs" width="1500" height="1500" viewBox="0 0 1500 1500"><g transform="matrix(1,0,0,1,-0.323615160350073,-0.3236151603499593)"><svg viewBox="0 0 343 343" data-background-color="#d2d6dc" preserveAspectRatio="xMidYMid meet" height="1500" width="1500" xmlns="http://www.w3.org/2000/svg" xmlns:xlink="http://www.w3.org/1999/xlink"><g id="tight-bounds" transform="matrix(1,0,0,1,0.0740000000000407,0.07400000000001228)"><svg viewBox="0 0 342.85155851775386 342.85155851775386" height="342.85155851775386" width="342.85155851775386"><g><svg></svg></g><g><svg viewBox="0 0 342.85155851775386 342.85155851775386" height="342.85155851775386" width="342.85155851775386"><g><path d="M0 171.426c0-94.676 76.75-171.426 171.426-171.426 94.676 0 171.426 76.75 171.426 171.426 0 94.676-76.75 171.426-171.426 171.426-94.676 0-171.426-76.75-171.426-171.426zM171.426 339.512c92.831 0 168.086-75.255 168.086-168.086 0-92.831-75.255-168.086-168.086-168.086-92.831 0-168.086 75.255-168.086 168.086 0 92.831 75.255 168.086 168.086 168.086z" data-fill-palette-color="tertiary" fill="#6b7280" stroke="transparent"></path><ellipse rx="164.56874808852186" ry="164.56874808852186" cx="171.42577925887693" cy="171.42577925887693" fill="#6b7280" stroke="transparent" stroke-width="0" fill-opacity="1" data-fill-palette-color="tertiary"></ellipse></g><g transform="matrix(1,0,0,1,64.84655864529837,85.27018590478677)"><svg viewBox="0 0 213.1584412271571 172.31118670818032" height="172.31118670818032" width="213.1584412271571"><g><svg viewBox="0 0 213.1584412271571 172.31118670818032" height="172.31118670818032" width="213.1584412271571"><g><svg viewBox="0 0 213.1584412271571 172.31118670818032" height="172.31118670818032" width="213.1584412271571"><g transform="matrix(1,0,0,1,0,103.64293015071223)"><svg viewBox="0 0 213.1584412271571 68.66825655746808" height="68.66825655746808" width="213.1584412271571"><g id="textblocktransform"><svg viewBox="0 0 213.1584412271571 68.66825655746808" height="68.66825655746808" width="213.1584412271571" id="textblock"><g><svg viewBox="0 0 213.1584412271571 37.03637637155548" height="37.03637637155548" width="213.1584412271571"><g transform="matrix(1,0,0,1,0,0)"><svg width="213.1584412271571" viewBox="4.49 -36.01 267.65 46.51" height="37.03637637155548" data-palette-color="#d2d6dc"><path d="M9.5-27.15L9.5 0 4.49 0 4.49-35.01 9.5-35.01 30.54-7.86 30.54-35.01 35.55-35.01 35.55 0 30.54 0 9.5-27.15ZM44.28-26L49.09-26 49.09 0 44.28 0 44.28-26ZM44.04-31.01L44.04-36.01 49.34-36.01 49.34-31.01 44.04-31.01ZM57.34-5.81L57.34-21.19Q57.34-22.19 57.72-23.07 58.1-23.95 58.75-24.6 59.39-25.24 60.27-25.62 61.15-26 62.13-26L62.13-26 70.75-26Q71.7-26 72.55-25.65 73.41-25.29 74.06-24.67 74.7-24.05 75.1-23.21 75.51-22.36 75.53-21.41L75.53-21.41 75.53-26 80.34-26 80.34 5.69Q80.34 6.69 79.96 7.57 79.58 8.45 78.94 9.09 78.29 9.74 77.41 10.12 76.53 10.5 75.53 10.5L75.53 10.5 60.35 10.5 60.35 5.69 75.53 5.69 75.53-1 62.13-1Q61.15-1 60.27-1.38 59.39-1.76 58.75-2.4 58.1-3.05 57.72-3.93 57.34-4.81 57.34-5.81L57.34-5.81ZM62.13-5.81L75.53-5.81 75.53-21.19 62.13-21.19 62.13-5.81ZM88.59-26L93.4-26 93.4 0 88.59 0 88.59-26ZM88.35-31.01L88.35-36.01 93.64-36.01 93.64-31.01 88.35-31.01ZM116.35-21.19L106.44-21.19 106.44 0 101.65 0 101.65-26 106.44-26 106.44-21.41Q106.48-22.36 106.87-23.21 107.27-24.05 107.91-24.67 108.56-25.29 109.41-25.65 110.27-26 111.24-26L111.24-26 116.35-26Q117.35-26 118.22-25.62 119.08-25.24 119.74-24.6 120.4-23.95 120.78-23.07 121.16-22.19 121.16-21.19L121.16-21.19 121.16-16.8 116.35-16.8 116.35-21.19ZM127.38-26L132.19-26 132.19 0 127.38 0 127.38-26ZM127.14-31.01L127.14-36.01 132.43-36.01 132.43-31.01 127.14-31.01ZM177.91-14.99L160.92-14.99Q159.89-14.99 158.98-15.39 158.06-15.8 157.38-16.47 156.7-17.14 156.31-18.05 155.92-18.97 155.92-20L155.92-20 155.92-30Q155.92-31.03 156.31-31.95 156.7-32.86 157.38-33.53 158.06-34.2 158.98-34.61 159.89-35.01 160.92-35.01L160.92-35.01 177.91-35.01Q178.94-35.01 179.85-34.61 180.77-34.2 181.45-33.53 182.14-32.86 182.53-31.95 182.92-31.03 182.92-30L182.92-30 182.92-25.49 177.91-25.49 177.91-30 160.92-30 160.92-20 177.91-20Q178.94-20 179.85-19.6 180.77-19.21 181.45-18.53 182.14-17.85 182.53-16.93 182.92-16.02 182.92-14.99L182.92-14.99 182.92-5Q182.92-3.98 182.53-3.06 182.14-2.15 181.45-1.46 180.77-0.78 179.85-0.39 178.94 0 177.91 0L177.91 0 160.43 0Q159.41 0 158.49-0.39 157.58-0.78 156.89-1.46 156.21-2.15 155.82-3.06 155.43-3.98 155.43-5L155.43-5 155.43-9.5 160.43-9.5 160.43-5 177.91-5 177.91-14.99ZM191.44-4.81L191.44-26 196.22-26 196.22-4.81 209.62-4.81 209.62-26 214.43-26 214.43 0 209.62 0 209.62-4.39Q209.55-3.49 209.14-2.69 208.72-1.88 208.07-1.28 207.43-0.68 206.6-0.34 205.77 0 204.84 0L204.84 0 196.22 0Q195.24 0 194.36-0.38 193.49-0.76 192.84-1.4 192.19-2.05 191.81-2.93 191.44-3.81 191.44-4.81L191.44-4.81ZM254.03-21.19L243.04-21.19 243.04 0 238.23 0 238.23-21.19 227.22-21.19 227.22 0 222.44 0 222.44-26 227.22-26 227.22-21.41Q227.27-22.36 227.66-23.21 228.05-24.05 228.7-24.67 229.35-25.29 230.2-25.65 231.06-26 232.03-26L232.03-26 238.23-26Q239.19-26 240.04-25.65 240.9-25.29 241.55-24.67 242.21-24.05 242.62-23.21 243.02-22.36 243.04-21.41L243.04-21.41Q243.09-22.36 243.47-23.21 243.85-24.05 244.5-24.67 245.14-25.29 246-25.65 246.85-26 247.83-26L247.83-26 254.03-26Q255.03-26 255.91-25.62 256.79-25.24 257.44-24.6 258.08-23.95 258.46-23.07 258.84-22.19 258.84-21.19L258.84-21.19 258.84 0 254.03 0 254.03-21.19ZM267.09-26L271.9-26 271.9 0 267.09 0 267.09-26ZM266.85-31.01L266.85-36.01 272.14-36.01 272.14-31.01 266.85-31.01Z" opacity="1" transform="matrix(1,0,0,1,0,0)" fill="#d2d6dc" class="wordmark-text-0" data-fill-palette-color="quaternary" id="text-0"></path></svg></g></svg></g><g transform="matrix(1,0,0,1,0,45.77977595984681)"><svg viewBox="0 0 213.1584412271571 22.88848059762128" height="22.88848059762128" width="213.1584412271571"><g transform="matrix(1,0,0,1,0,0)"><svg width="213.1584412271571" viewBox="-0.8 -36.1 349.7 37.550000000000004" height="22.88848059762128" data-palette-color="#d2d6dc"><path d="M23.2-6.2L23.2-6.2Q23.2-2.7 20.98-1 18.75 0.7 14.75 0.7L14.75 0.7Q8.35 0.7 5.33-3.55 2.3-7.8 2.3-14.65L2.3-14.65Q2.3-15.75 2.4-17.85L2.4-17.85-0.4-17.85Q-0.8-17.85-0.8-18.15L-0.8-18.15Q-0.8-19 0.05-20.2 0.9-21.4 1.9-21.4L1.9-21.4 2.85-21.4Q3.5-25 4.98-27.75 6.45-30.5 8.08-32 9.7-33.5 11.65-34.4L11.65-34.4Q14.75-35.9 18.15-35.9 21.55-35.9 22.4-34.8L22.4-34.8Q22.8-34.25 22.8-32.77 22.8-31.3 22.45-31.3L22.45-31.3Q22.4-31.3 22-31.5L22-31.5Q20.7-32.1 18.75-32.1L18.75-32.1Q14.5-32.1 12.13-29.1 9.75-26.1 8.95-21.4L8.95-21.4Q12.75-21.45 19.25-21.45L19.25-21.45Q19.75-21.45 19.75-21.1L19.75-21.1Q19.75-20.3 18.95-19.07 18.15-17.85 17.15-17.85L17.15-17.85 8.55-17.85Q8.5-17.25 8.5-15.23 8.5-13.2 9.22-10.98 9.95-8.75 11.93-7.2 13.9-5.65 17.05-5.65 20.2-5.65 22.35-7.05L22.35-7.05Q22.6-7.25 22.8-7.25L22.8-7.25Q23.2-7.25 23.2-6.2ZM63.42-6.85L63.42-6.85Q63.42-4.7 62.6-3.1 61.77-1.5 60.72-0.75 59.67 0 58.22 0.45L58.22 0.45Q56.32 1.05 54.77 1.05L54.77 1.05Q51.52 1.05 49.37-0.23 47.22-1.5 47.22-4.3L47.22-4.3Q47.22-5.95 48.12-7L48.12-7Q49.52-8.55 51.47-8.55L51.47-8.55Q52.07-8.55 52.07-8L52.07-8Q52.07-7.95 51.85-7.23 51.62-6.5 51.62-5.4 51.62-4.3 52.5-3.45 53.37-2.6 54.62-2.6 55.87-2.6 56.62-3.03 57.37-3.45 57.67-4.1L57.67-4.1Q58.12-5 58.12-5.8L58.12-5.8Q58.12-7.25 56.67-8.3 55.22-9.35 53.47-9.95 51.72-10.55 50.27-11.95 48.82-13.35 48.82-15.45L48.82-15.45Q48.82-19.05 51.1-20.85 53.37-22.65 57.27-22.65L57.27-22.65Q58.97-22.65 60.85-22.18 62.72-21.7 62.72-20.58 62.72-19.45 62.35-18.5 61.97-17.55 61.42-17.55L61.42-17.55Q61.12-17.55 61.02-17.78 60.92-18 60.67-18.3 60.42-18.6 59.47-19.07 58.52-19.55 57.85-19.55 57.17-19.55 56.95-19.53 56.72-19.5 56.17-19.38 55.62-19.25 55.17-19L55.17-19Q54.02-18.35 54.02-17.1L54.02-17.1Q54.02-16.3 54.37-15.93 54.72-15.55 54.92-15.35 55.12-15.15 55.62-14.88 56.12-14.6 56.32-14.5 56.52-14.4 57.22-14.08 57.92-13.75 58.12-13.65L58.12-13.65Q63.42-11.15 63.42-6.85ZM87.5-19.5L87.5-19.5 87.65-21.5Q87.7-21.95 88.35-21.95L88.35-21.95 90.1-21.95 89.9-25.95 89.9-26.15Q89.9-27.3 91.65-28.35 93.4-29.4 94.85-29.4L94.85-29.4Q95.3-29.4 95.3-29L95.3-29 95.3-28.95Q95.1-27.6 94.9-22L94.9-22Q97.1-22 97.7-22.1 98.3-22.2 98.35-22.2L98.35-22.2Q98.7-22.2 98.7-21.6 98.7-21 98.15-20.08 97.6-19.15 96.95-19.1L96.95-19.1 94.85-19.1Q94.8-17.4 94.8-13.38 94.8-9.35 94.87-6.75 94.95-4.15 95.05-2.83 95.15-1.5 95.27-0.7 95.4 0.1 95.47 0.45 95.55 0.8 95.55 0.9L95.55 0.9Q95.55 1.4 94.9 1.45L94.9 1.45Q92.95 1.45 91.02 0.9 89.1 0.35 89.1-1L89.1-1Q90.15-9.4 90.15-19.05L90.15-19.05Q88.8-19.05 88.1-18.95L88.1-18.95 88.05-18.95Q87.6-18.95 87.5-19.5ZM126.52 0.05L126.52 0.05 125.32 0.1Q124.12 0.1 123.72-0.4 123.32-0.9 123.3-2.27 123.27-3.65 123.92-4.25 124.57-4.85 126.12-4.85 127.67-4.85 128.4-4.28 129.12-3.7 129.12-2.4L129.12-2.4Q129.12 0.85 128.47 0.85L128.47 0.85 128.22 0.7Q127.87 0.05 126.52 0.05ZM201.17 0.5L201.17 0.5 193.22 0.05Q190.37 0.05 188.57 0.85L188.57 0.85Q188.22 1 187.97 1L187.97 1Q187.32 1 187.32-0.68 187.32-2.35 188.27-4.67 189.22-7 190.57-9L190.57-9Q193.42-13.35 195.52-15.6L195.52-15.6 196.47-16.6Q199.22-19.55 200.9-22.4 202.57-25.25 202.57-28.6L202.57-28.6Q202.57-31.75 200.12-32.6L200.12-32.6Q199.57-32.8 198.57-32.83 197.57-32.85 196.67-32.45 195.77-32.05 195.32-31.45L195.32-31.45Q194.47-30.2 194.42-29.15L194.42-29.15Q194.32-27.35 195.22-26.75L195.22-26.75 195.47-26.55Q196.52-26.1 196.52-25.2L196.52-25.2 196.52-25.15Q196.52-23.8 195.72-23.03 194.92-22.25 194.12-22.15L194.12-22.15 193.27-22.05Q191.77-22.05 190.75-22.6 189.72-23.15 189.32-24L189.32-24Q188.57-25.5 188.57-27L188.57-27Q188.57-31.25 191.8-33.65 195.02-36.05 199.17-36.05 203.32-36.05 206.17-33.9 209.02-31.75 209.02-27.9L209.02-27.9Q209.02-22.7 204.57-18.75L204.57-18.75 203.57-17.9Q196.87-12.2 194.77-8.6L194.77-8.6Q194.02-7.35 194.02-6.5L194.02-6.5Q194.02-5.95 195-5.83 195.97-5.7 198.77-5.7L198.77-5.7Q205.82-5.7 207.92-8L207.92-8Q208.17-8.15 208.42-8.15L208.42-8.15Q209.02-8.15 209.02-6.45 209.02-4.75 208.32-2.83 207.62-0.9 206.27-0.1L206.27-0.1Q205.32 0.5 201.17 0.5ZM251.35-17.53Q251.35-32.45 246.07-32.45 240.8-32.45 240.8-17.53 240.8-2.6 246.07-2.6 251.35-2.6 251.35-17.53ZM253.75-2.08Q252.5-0.7 250.55 0.05 248.6 0.8 245.82 0.8 243.05 0.8 240.8-0.28 238.55-1.35 237.32-2.98 236.1-4.6 235.35-7.05 234.6-9.5 234.4-11.7 234.2-13.9 234.2-16.88 234.2-19.85 234.45-22.35 234.7-24.85 235.45-27.48 236.2-30.1 237.47-31.85 238.75-33.6 240.95-34.73 243.15-35.85 245.97-35.85 248.8-35.85 250.85-35 252.9-34.15 254.15-32.58 255.4-31 256.2-29.3 257-27.6 257.35-25.3L257.35-25.3Q257.95-21.4 257.95-18.32 257.95-15.25 257.77-13.25 257.6-11.25 257.17-9.03 256.75-6.8 255.87-5.13 255-3.45 253.75-2.08ZM295.62 0.5L295.62 0.5 287.67 0.05Q284.82 0.05 283.02 0.85L283.02 0.85Q282.67 1 282.42 1L282.42 1Q281.77 1 281.77-0.68 281.77-2.35 282.72-4.67 283.67-7 285.02-9L285.02-9Q287.87-13.35 289.97-15.6L289.97-15.6 290.92-16.6Q293.67-19.55 295.35-22.4 297.02-25.25 297.02-28.6L297.02-28.6Q297.02-31.75 294.57-32.6L294.57-32.6Q294.02-32.8 293.02-32.83 292.02-32.85 291.12-32.45 290.22-32.05 289.77-31.45L289.77-31.45Q288.92-30.2 288.87-29.15L288.87-29.15Q288.77-27.35 289.67-26.75L289.67-26.75 289.92-26.55Q290.97-26.1 290.97-25.2L290.97-25.2 290.97-25.15Q290.97-23.8 290.17-23.03 289.37-22.25 288.57-22.15L288.57-22.15 287.72-22.05Q286.22-22.05 285.2-22.6 284.17-23.15 283.77-24L283.77-24Q283.02-25.5 283.02-27L283.02-27Q283.02-31.25 286.25-33.65 289.47-36.05 293.62-36.05 297.77-36.05 300.62-33.9 303.47-31.75 303.47-27.9L303.47-27.9Q303.47-22.7 299.02-18.75L299.02-18.75 298.02-17.9Q291.32-12.2 289.22-8.6L289.22-8.6Q288.47-7.35 288.47-6.5L288.47-6.5Q288.47-5.95 289.45-5.83 290.42-5.7 293.22-5.7L293.22-5.7Q300.27-5.7 302.37-8L302.37-8Q302.62-8.15 302.87-8.15L302.87-8.15Q303.47-8.15 303.47-6.45 303.47-4.75 302.77-2.83 302.07-0.9 300.72-0.1L300.72-0.1Q299.77 0.5 295.62 0.5ZM332.2-14.35L332.2-14.35 336.35-14.25Q338.55-14.25 339.8-14.3L339.8-14.3Q339.95-18.4 339.95-21.5L339.95-21.5 339.9-26.4Q339.9-27.05 339.55-27.05L339.55-27.05 338.95-26.75Q337.4-25.05 335.67-22.3 333.95-19.55 333-17.6L333-17.6 332.05-15.7Q331.85-15.25 331.85-14.8 331.85-14.35 332.2-14.35ZM339.55-9.15L339.55-9.15 335.25-9.2 326.25-9.1Q325.15-9.1 325.15-10.1L325.15-10.1 325.25-10.65Q328.45-18.55 336-28.6L336-28.6Q338.4-31.85 340.45-34.1L340.45-34.1 341.1-34.75Q342.4-36.1 344.95-36.1L344.95-36.1Q346.3-36.1 346.3-35.3L346.3-35.3Q345.5-28.25 345.5-20.95L345.5-20.95 345.5-14.6Q346.15-14.65 346.9-14.7L346.9-14.7 348.05-14.8Q348.4-14.8 348.5-14.8L348.5-14.8Q348.9-14.8 348.9-14.55L348.9-14.55Q348.9-13.7 348.05-11.8 347.2-9.9 346.3-9.5L346.3-9.5 345.6-9.35Q345.7-3.7 346.1-1.75L346.1-1.75Q346.1-0.45 344.12 0.15 342.15 0.75 340.37 0.75 338.6 0.75 338.6-0.05L338.6-0.05Q338.6-0.15 338.9-2.05 339.2-3.95 339.55-9.15Z" opacity="1" transform="matrix(1,0,0,1,0,0)" fill="#d2d6dc" class="slogan-text-1" data-fill-palette-color="quaternary" id="text-1"></path></svg></g></svg></g></svg></g></svg></g><g transform="matrix(1,0,0,1,48.883891978800406,0)"><svg viewBox="0 0 115.3906572695563 94.8995305624209" height="94.8995305624209" width="115.3906572695563"><g><svg xmlns="http://www.w3.org/2000/svg" xmlns:xlink="http://www.w3.org/1999/xlink" version="1.1" x="0" y="0" viewBox="5 13.1 90.1 74.10000000000001" enable-background="new 0 9.1 100 82.2" xml:space="preserve" height="94.8995305624209" width="115.3906572695563" class="icon-icon-0" data-fill-palette-color="quaternary" id="icon-0"><path d="M92.3 62.6L89.3 56.9C88.3 54.7 86.8 52.8 85 51.4 87.2 50.8 89.1 49.6 90.7 48.1 93.6 45.3 95 41.2 95 36.1 95 32.9 93.9 30 92.3 27.3L89.3 21.6C87 16.5 82.1 13.1 76.6 13.1 69.8 13.1 64.1 18.3 62.7 25.2L60.8 21.6C58.5 16.5 53.6 13.1 48.1 13.1 41.3 13.1 35.6 18.4 34.2 25.4L32.2 21.6C29.9 16.5 25 13.1 19.5 13.1 11.5 13.2 5 20.1 5 28.5 5 31.5 5.8 34.6 7.4 37.1 8 38.6 8.8 39.9 9.7 41L14.2 46.6C14.9 47.3 15.6 48.1 16.3 48.7 9.9 50.2 5.1 56.5 5.1 63.8 5.1 66.8 5.9 69.9 7.5 72.4 8.1 73.9 8.9 75.2 9.8 76.3L14.3 81.9C17.3 85.2 19.9 87.2 23.6 87.2 27.5 87.2 31 85.8 33.5 83.3 35.6 81.2 37 78.3 37.6 74.9 37.9 75.4 38.2 75.8 38.5 76.2L43 81.8C46 85.1 48.6 87.1 52.3 87.1 56.2 87.1 59.7 85.7 62.2 83.2 64.3 81.2 65.6 78.3 66.2 74.9 66.1 74.7 65.9 74.5 65.8 74.3 64.9 80.5 60.9 86.6 52.3 86.6 48.1 86.6 44.7 82.8 43.5 81.3L40.8 78.1C42.7 79.5 45 80.3 47.4 80.3 51.5 80.3 55.2 78.8 57.8 76.2 60.7 73.3 62.3 68.9 62.3 63.6 62.3 62.1 62.1 60.7 61.7 59.4L62.4 60.7C62.5 60.8 62.5 60.9 62.6 61 62.4 61.8 62.4 62.8 62.4 63.7 62.4 66.7 63.2 69.8 64.8 72.3 65.4 73.8 66.2 75.1 67.1 76.2L71.6 81.8C74.6 85.1 77.2 87.1 80.9 87.1 84.8 87.1 88.3 85.7 90.8 83.2 93.7 80.4 95.1 76.3 95.1 71.2 95 68.2 93.9 65.3 92.3 62.6M90.9 25.7C93.3 30.2 94.5 32.3 94.5 36.1 94.5 42.3 91.8 49.3 84.5 51 82.2 49.3 79.4 48.3 76.5 48.3 75.8 48.3 74.9 48.4 74.2 48.5 73.2 47.6 72.4 46.7 71.9 46.2L69.2 43C71.1 44.4 73.4 45.2 75.8 45.2 79.9 45.2 83.6 43.7 86.2 41.1 89.1 38.2 90.7 33.8 90.7 28.5 90.7 27 90.5 25.6 90.1 24.3zM76.5 13.6C84.1 13.6 90.3 20.3 90.3 28.6 90.3 36.1 86.5 44.9 75.7 44.9 71.4 44.9 67.4 42.1 65.3 37.8 70.6 41.3 77.9 40.2 82.2 35.1 84.1 32.9 85.1 30.1 84.8 27.4 84.6 24.8 83.3 22.4 81.4 20.8 78 17.9 72.6 18.5 69.6 22 68.4 23.5 67.8 25.2 67.9 27.1 68.1 28.9 68.8 30.3 70.1 31.4 72.4 33.2 75.8 33 77.8 30.6 78.6 29.7 79 28.5 78.9 27.3 78.8 26.2 78.3 25.1 77.4 24.4 77.3 24.3 77.1 24.3 77 24.3 76.8 24.1 76.5 24 76.3 23.9L71 22.2C70.9 22.2 70.7 22.1 70.6 22.1 73.4 19.2 77.9 18.9 80.8 21.4 82.6 23 83.7 25.1 83.9 27.5 84.1 30.1 83.3 32.6 81.5 34.6 77.1 39.7 69.5 40.5 64.6 36.4 64.5 36.3 64.4 36.3 64.4 36.3 63.1 34 62.5 31.3 62.5 28.7 62.7 20.3 68.9 13.6 76.5 13.6M77.7 26.6C77.8 26.6 77.9 26.6 78 26.7 78.2 26.9 78.1 27.3 77.8 27.6 77.6 27.8 77.3 27.9 77.2 27.9S77 27.9 76.9 27.8C76.7 27.6 76.8 27.2 77.1 26.9 77.3 26.7 77.5 26.6 77.7 26.6M77.5 25.7L77.6 25.4C77.7 25.5 77.7 25.6 77.8 25.7zM78.2 28.5C78.2 28.7 78.1 28.8 78.1 29 78.1 28.9 78 28.8 77.9 28.7 78.1 28.5 78.1 28.5 78.2 28.5M76.9 30.5C76.6 30.8 76.3 31 76 31 75.9 31 75.7 31 75.6 30.8 75.3 30.5 75.4 29.9 75.9 29.5 76.2 29.2 76.5 29 76.8 29 76.9 29 77.1 29 77.2 29.2 77.5 29.4 77.4 30 76.9 30.5M75.2 28.3S74.9 28.4 74.6 28.3L70.3 27C70 26.9 69.8 26.7 69.8 26.7L70.4 23.1H70.6C70.7 23.1 70.8 23.1 71 23.2L76.4 24.9C76.7 25 76.9 25.2 76.9 25.1zM75.2 31.6C75 31.6 74.9 31.7 74.7 31.7 74.8 31.6 74.8 31.5 74.9 31.5S75.1 31.5 75.2 31.6M73 29.9C73.3 29.6 73.6 29.4 73.9 29.4 74 29.4 74.2 29.4 74.3 29.6 74.6 29.9 74.5 30.5 74 30.9 73.7 31.2 73.4 31.4 73.1 31.4 73 31.4 72.8 31.4 72.7 31.2 72.5 30.9 72.7 30.4 73 29.9M72.9 28.7L73.1 28.8C73 28.8 73 28.8 72.9 28.9zM71.8 31.3C71.4 31.1 71.2 30.9 70.9 30.7L70.8 30.6H71C71.3 30.6 71.6 30.5 71.8 30.5 71.7 30.9 71.7 31.1 71.8 31.3M70.9 29.7C70.3 29.7 69.8 29.3 69.8 29S70.4 28.3 70.9 28.3 72 28.6 72 29 71.6 29.7 70.9 29.7M69.7 27.7C69.5 27.8 69.3 28 69.1 28.3 69 27.9 68.9 27.5 68.8 27V26.7C68.9 27.1 69.3 27.5 69.7 27.7M68.9 26.5C68.9 25.9 69 25.2 69.2 24.7zM48 13.6C55.6 13.6 61.8 20.3 61.8 28.6 61.8 36.1 58 44.9 47.2 44.9 42.9 44.9 38.9 42.1 36.8 37.8 42.1 41.3 49.4 40.2 53.7 35.1 55.6 32.9 56.6 30.1 56.3 27.4 56.1 24.8 54.8 22.4 52.9 20.8 49.5 17.9 44.1 18.5 41.1 22 39.9 23.5 39.3 25.2 39.4 27.1 39.6 28.9 40.3 30.3 41.6 31.4 43.9 33.2 47.3 33 49.3 30.6 50.1 29.7 50.5 28.5 50.4 27.3 50.3 26.2 49.8 25.1 48.9 24.4 48.9 24.3 48.8 24.2 48.7 24.2 48.5 24 48.2 23.7 47.9 23.6L42.5 22C42.4 22 42.3 21.9 42.2 21.9 45 19.1 49.4 18.9 52.3 21.3 54.1 22.9 55.2 25 55.4 27.4 55.6 30 54.8 32.5 53 34.5 48.6 39.6 41 40.4 36.1 36.3 36 36.2 35.9 36.2 35.9 36.2 34.6 33.9 34 31.2 34 28.6 34.2 20.3 40.3 13.6 48 13.6M42.9 46.7C43.6 47.4 44.3 48.2 45 48.8 39.5 50.1 35.1 54.8 33.9 60.7L31.9 56.9C30.9 54.7 29.4 52.8 27.6 51.4 29.8 50.8 31.7 49.6 33.3 48.1 35.4 46 36.8 43.1 37.4 39.7 37.7 40.2 38 40.6 38.3 41zM49.2 26.4C49.3 26.4 49.4 26.4 49.5 26.5 49.7 26.7 49.6 27.1 49.3 27.4 49.1 27.6 48.8 27.7 48.7 27.7S48.5 27.7 48.4 27.6C48.2 27.4 48.3 27 48.6 26.7 48.7 26.5 49 26.4 49.2 26.4M48.9 25.6L49 25.4C49 25.5 49.1 25.5 49.1 25.6 49 25.5 49 25.5 48.9 25.6M49.7 28.3C49.7 28.5 49.6 28.7 49.6 28.9 49.6 28.8 49.5 28.7 49.4 28.5 49.5 28.5 49.6 28.4 49.7 28.3M48.3 30.3C48 30.6 47.7 30.8 47.4 30.8 47.3 30.8 47.1 30.8 47 30.6 46.7 30.3 46.8 29.7 47.3 29.3 47.6 29 47.9 28.8 48.2 28.8 48.3 28.8 48.5 28.8 48.6 29 48.9 29.3 48.8 29.8 48.3 30.3M46.7 28.2S46.4 28.3 46.1 28.2L41.7 26.8C41.4 26.7 41.2 26.5 41.2 26.5L41.8 22.9H42C42.1 22.9 42.2 22.9 42.4 23L47.8 24.7C48.1 24.8 48.3 25 48.3 24.9zM44.5 29.7C44.8 29.4 45.1 29.2 45.4 29.2 45.5 29.2 45.7 29.2 45.8 29.4 46.1 29.7 46 30.3 45.5 30.7 45.2 31 44.9 31.2 44.6 31.2 44.5 31.2 44.3 31.2 44.2 31 43.9 30.9 44.1 30.2 44.5 29.7M44.4 28.6L44.6 28.7C44.5 28.7 44.5 28.8 44.4 28.8zM46.2 31.5C46.3 31.4 46.3 31.3 46.4 31.3 46.5 31.4 46.6 31.5 46.8 31.6 46.5 31.7 46.2 31.8 46 31.8 46 31.6 46.1 31.6 46.2 31.5M43.3 31.4C42.9 31.2 42.6 31 42.3 30.8L42 30.5H42.4C42.7 30.5 43 30.4 43.2 30.4 43.1 30.8 43.2 31.1 43.3 31.4M42.4 29.7C41.8 29.7 41.3 29.3 41.3 29S41.9 28.3 42.4 28.3 43.5 28.7 43.5 29 43 29.7 42.4 29.7M41.2 27.5C40.9 27.7 40.7 27.9 40.6 28.1 40.5 27.7 40.4 27.4 40.4 27V26.4C40.2 26.9 40.6 27.4 41.2 27.5M40.3 26.4C40.3 25.8 40.4 25.4 40.6 24.8zM8.2 37.9C13.5 41.4 20.8 40.3 25.1 35.2 27 33 28 30.2 27.7 27.5 27.5 24.9 26.2 22.5 24.3 20.9 20.9 18 15.5 18.6 12.5 22.1 11.3 23.6 10.7 25.3 10.8 27.2 11 29 11.7 30.4 13 31.5 15.3 33.3 18.7 33.1 20.7 30.7 21.5 29.8 21.9 28.6 21.8 27.4 21.7 26.3 21.2 25.2 20.3 24.5 20.2 24.4 20.1 24.4 19.9 24.4 19.7 24.1 19.4 23.9 19.1 23.8L13.7 22.1C13.6 22.1 13.5 22.1 13.5 22 16.3 19.2 20.7 19 23.6 21.4 25.4 23 26.5 25.1 26.7 27.5 26.9 30.1 26.1 32.6 24.3 34.6 19.9 39.7 12.3 40.5 7.4 36.4 7.3 36.3 7.2 36.3 7.2 36.3 5.9 34 5.3 31.3 5.3 28.7 5.3 20.4 11.5 13.7 19.1 13.7S32.9 20.4 32.9 28.7C32.9 36.2 29.1 45 18.3 45 14.3 44.9 10.3 42.2 8.2 37.9M20.5 26.4C20.6 26.4 20.7 26.4 20.8 26.5 21 26.7 20.9 27.1 20.6 27.4 20.4 27.6 20.1 27.7 20 27.7S19.8 27.7 19.7 27.6C19.5 27.4 19.6 27 19.9 26.7 20 26.5 20.2 26.4 20.5 26.4M20.2 25.6L20.3 25.4 20.5 25.6C20.3 25.5 20.2 25.5 20.2 25.6M21.1 28.2C21.1 28.5 21 28.7 20.9 28.9 20.8 28.7 20.8 28.6 20.7 28.4 20.8 28.5 21 28.3 21.1 28.2M19.6 30.3C19.3 30.6 19 30.8 18.7 30.8 18.6 30.8 18.4 30.8 18.3 30.6 18 30.3 18.1 29.7 18.6 29.3 18.9 29 19.2 28.8 19.5 28.8 19.6 28.8 19.8 28.8 19.9 29 20.2 29.3 20.1 29.8 19.6 30.3M17.9 28.2S17.6 28.3 17.3 28.2L13 26.9C12.7 26.8 12.5 26.6 12.5 26.6L13.1 23H13.3C13.4 23 13.5 23 13.7 23.1L19.1 24.8C19.4 24.9 19.6 25.1 19.6 25zM15.8 29.7C16.1 29.4 16.4 29.2 16.7 29.2 16.8 29.2 17 29.2 17.1 29.4 17.4 29.7 17.3 30.3 16.8 30.7 16.5 31 16.2 31.2 15.9 31.2 15.8 31.2 15.6 31.2 15.5 31 15.2 30.9 15.4 30.2 15.8 29.7M15.6 28.6L15.8 28.7C15.7 28.7 15.7 28.8 15.6 28.8 15.7 28.6 15.7 28.6 15.6 28.6M17.5 31.5C17.6 31.4 17.6 31.3 17.7 31.3 17.8 31.4 18 31.5 18.1 31.6 17.8 31.7 17.5 31.8 17.2 31.8zM14.6 31.3C14.2 31.1 14 30.9 13.7 30.7L13.4 30.4H13.7C14 30.4 14.3 30.3 14.5 30.3 14.4 30.8 14.4 31 14.6 31.3M13.7 29.7C13.1 29.7 12.6 29.3 12.6 29S13.2 28.3 13.7 28.3C14.3 28.3 14.8 28.7 14.8 29S14.3 29.7 13.7 29.7M12.4 27.5L11.8 28.1C11.7 27.7 11.6 27.4 11.6 27V26.9C11.9 27.2 12.1 27.4 12.4 27.5M14.7 46.3L12 43.1C13.9 44.5 16.2 45.3 18.6 45.3 22.7 45.3 26.4 43.8 29 41.2 31.9 38.3 33.5 33.9 33.5 28.6 33.5 27.1 33.3 25.7 32.9 24.4L33.6 25.7C33.7 25.9 33.8 26 33.8 26.1 33.7 26.9 33.6 27.8 33.6 28.6 33.6 31.6 34.4 34.7 36 37.2 36.3 37.9 36.6 38.6 37 39.2 36.3 44.5 33.3 49.6 27.2 51.1 24.9 49.4 22.1 48.4 19.2 48.4 18.5 48.4 17.6 48.5 16.9 48.6 16 47.8 15.2 46.9 14.7 46.3M8.2 73C13.5 76.5 20.8 75.4 25.1 70.3 27 68.1 28 65.3 27.7 62.6 27.5 60 26.2 57.6 24.3 56 20.9 53.1 15.5 53.7 12.5 57.2 11.3 58.7 10.7 60.4 10.8 62.3 11 64.1 11.7 65.5 13 66.6 15.3 68.4 18.7 68.2 20.7 65.8 21.5 64.9 21.9 63.7 21.8 62.5 21.7 61.4 21.2 60.3 20.3 59.6 20.2 59.5 20.1 59.5 19.9 59.5 19.7 59.2 19.3 59 19 58.9L13.6 57.2H13.4C16.2 54.5 20.6 54.2 23.4 56.6 25.2 58.2 26.3 60.3 26.5 62.7 26.7 65.3 25.9 67.8 24.1 69.8 20 74.9 12.4 75.7 7.4 71.6 7.3 71.5 7.2 71.5 7.2 71.5 5.9 69.1 5.3 66.5 5.3 63.8 5.3 55.5 11.5 48.8 19.1 48.8S32.9 55.5 32.9 63.8C32.9 71.3 29.1 80.1 18.3 80.1 14.3 80.1 10.3 77.4 8.2 73M20.4 61.6C20.5 61.6 20.6 61.6 20.7 61.7 20.9 61.9 20.8 62.3 20.5 62.6 20.3 62.8 20 62.9 19.9 62.9S19.7 62.9 19.6 62.8C19.4 62.6 19.5 62.2 19.8 61.9 20 61.7 20.2 61.6 20.4 61.6M20.2 60.7L20.3 60.5 20.5 60.7zM21.1 63.3C21.1 63.6 21 63.9 20.9 64.1 20.8 63.9 20.8 63.7 20.7 63.6 20.8 63.6 21 63.5 21.1 63.3M19.6 65.5C19.3 65.8 19 66 18.7 66 18.6 66 18.4 66 18.3 65.8 18 65.5 18.1 64.9 18.6 64.5 18.9 64.2 19.2 64 19.5 64 19.6 64 19.8 64 19.9 64.2 20.2 64.4 20.1 65 19.6 65.5M17.9 63.3S17.6 63.4 17.3 63.3L13 62C12.7 61.9 12.5 61.7 12.5 61.7L13.1 58.1H13.3C13.4 58.1 13.5 58.1 13.7 58.2L19.1 59.9C19.4 60 19.6 60.2 19.6 60.1zM15.7 64.9C16 64.6 16.3 64.4 16.6 64.4 16.7 64.4 16.9 64.4 17 64.6 17.3 64.9 17.2 65.5 16.7 65.9 16.4 66.2 16.1 66.4 15.8 66.4 15.7 66.4 15.5 66.4 15.4 66.2 15.2 65.9 15.3 65.4 15.7 64.9M15.6 63.7L15.8 63.8C15.7 63.8 15.7 63.9 15.6 63.9zM17.5 66.6C17.6 66.5 17.6 66.4 17.7 66.4 17.8 66.5 18 66.7 18.2 66.7 17.8 66.8 17.5 66.9 17.1 67zM14.5 66.6L13.6 66 13.3 65.7H13.6C13.9 65.7 14.2 65.6 14.4 65.6 14.4 65.9 14.4 66.2 14.5 66.6M13.6 64.8C13 64.8 12.5 64.4 12.5 64.1 12.5 63.7 13.1 63.4 13.6 63.4 14.2 63.4 14.7 63.8 14.7 64.1S14.3 64.8 13.6 64.8M12.4 62.7C12.2 62.8 12 63 11.8 63.2 11.7 62.8 11.6 62.6 11.6 62.2V62.1C11.9 62.4 12.1 62.5 12.4 62.7M23.6 86.8C19.4 86.8 16 83 14.8 81.5L12.1 78.3C14 79.7 16.3 80.5 18.7 80.5 22.8 80.5 26.5 79 29.1 76.4 32 73.5 33.6 69.1 33.6 63.8 33.6 62.3 33.4 60.9 33 59.6L33.7 60.9C33.8 61 33.9 61.2 33.9 61.3 33.8 62.1 33.7 63 33.7 63.8 33.7 66.8 34.5 69.9 36.1 72.4 36.4 73.1 36.7 73.8 37.1 74.4 36.2 80.7 32.3 86.8 23.6 86.8M61.8 63.8C61.8 71.3 58 80.1 47.2 80.1 42.9 80.1 38.9 77.3 36.8 73 42.1 76.5 49.4 75.4 53.7 70.3 55.6 68.1 56.6 65.3 56.3 62.6 56.1 60 54.8 57.6 52.9 56 49.5 53.1 44.1 53.7 41.1 57.2 39.9 58.7 39.3 60.4 39.4 62.3 39.6 64.1 40.3 65.5 41.6 66.6 43.9 68.4 47.3 68.2 49.3 65.8 50.1 64.9 50.5 63.7 50.4 62.5 50.3 61.4 49.8 60.3 48.9 59.6 48.8 59.5 48.7 59.5 48.7 59.5 48.5 59.2 48.1 59 47.8 58.9L42.5 57.2C42.4 57.2 42.3 57.2 42.3 57.1 45.1 54.4 49.5 54.1 52.3 56.5 54.1 58.1 55.2 60.2 55.4 62.6 55.6 65.2 54.8 67.7 53 69.7 48.6 74.8 41 75.6 36.1 71.5 36 71.4 35.9 71.4 35.9 71.4 34.6 69.1 34 66.4 34 63.8 34 55.5 40.2 48.8 47.8 48.8S61.8 55.6 61.8 63.8M49.2 61.6C49.3 61.6 49.4 61.6 49.5 61.7 49.7 61.9 49.6 62.3 49.3 62.6 49.1 62.8 48.8 62.9 48.7 62.9S48.5 62.9 48.4 62.8C48.2 62.6 48.3 62.2 48.6 61.9 48.7 61.7 49 61.6 49.2 61.6M48.9 60.7H49.1zM49.7 63.4C49.7 63.6 49.6 63.8 49.5 64 49.4 63.9 49.4 63.7 49.3 63.6 49.5 63.6 49.6 63.5 49.7 63.4M48.3 65.5C48 65.8 47.7 66 47.4 66 47.3 66 47.1 66 47 65.8 46.7 65.5 46.8 64.9 47.3 64.5 47.6 64.2 47.9 64 48.2 64 48.3 64 48.5 64 48.6 64.2 48.9 64.4 48.8 65 48.3 65.5M46.7 63.3S46.4 63.4 46.1 63.3L41.7 62C41.4 61.9 41.2 61.7 41.2 61.7L41.8 58.1H42C42.1 58.1 42.2 58.1 42.4 58.2L47.8 59.9C48.1 60 48.3 60.2 48.3 60.1zM44.5 64.9C44.8 64.6 45.1 64.4 45.4 64.4 45.5 64.4 45.7 64.4 45.8 64.6 46.1 64.9 46 65.5 45.5 65.9 45.2 66.2 44.9 66.4 44.6 66.4 44.5 66.4 44.3 66.4 44.2 66.2 43.9 65.9 44.1 65.4 44.5 64.9M44.4 63.7L44.6 63.8C44.5 63.8 44.5 63.8 44.4 63.9zM46.2 66.6C46.3 66.5 46.3 66.4 46.4 66.4 46.5 66.5 46.7 66.6 46.9 66.7 46.5 66.8 46.3 66.9 45.9 67 46 66.9 46 66.8 46.2 66.6M43.4 66.6C43 66.4 42.7 66.2 42.4 66 42.3 65.9 42.2 65.8 42 65.7H42.4C42.7 65.7 43 65.6 43.2 65.6 43.1 65.9 43.2 66.3 43.4 66.6M42.4 64.8C41.8 64.8 41.3 64.4 41.3 64.1 41.3 63.7 41.9 63.4 42.4 63.4S43.5 63.8 43.5 64.1 43 64.8 42.4 64.8M41.2 62.7C40.9 62.9 40.7 63.1 40.6 63.3 40.5 62.9 40.4 62.6 40.4 62.2V61.6C40.2 62 40.6 62.4 41.2 62.7M40.3 61.5C40.3 61 40.4 60.6 40.5 60.1zM60.7 56.9C59.7 54.7 58.2 52.8 56.4 51.4 58.6 50.8 60.5 49.6 62.1 48.1 64.2 46.1 65.5 43.2 66.1 39.8 66 39.6 65.8 39.4 65.7 39.2 64.8 44.5 62 49.6 55.9 51 53.6 49.3 50.8 48.3 47.9 48.3 47.2 48.3 46.3 48.4 45.6 48.5 44.6 47.6 43.8 46.7 43.3 46.2L40.6 43C42.5 44.4 44.8 45.2 47.2 45.2 51.3 45.2 55 43.7 57.6 41.1 60.5 38.2 62.1 33.8 62.1 28.5 62.1 27 61.9 25.6 61.5 24.3L62.2 25.6C62.3 25.7 62.3 25.8 62.4 25.9 62.3 26.7 62.2 27.7 62.2 28.6 62.2 31.6 63 34.7 64.6 37.2 65.2 38.7 66 40 66.9 41.1L71.4 46.7C72.1 47.4 72.8 48.2 73.5 48.8 68 50.1 63.6 54.7 62.4 60.7zM65.4 73C70.7 76.5 78 75.4 82.3 70.3 84.2 68.1 85.2 65.3 84.9 62.6 84.7 60 83.4 57.6 81.5 56 78.1 53.1 72.7 53.7 69.7 57.2 68.5 58.7 67.9 60.4 68 62.3 68.2 64.1 68.9 65.5 70.2 66.6 72.5 68.4 75.9 68.2 77.9 65.8 78.7 64.9 79.1 63.7 79 62.5 78.9 61.4 78.4 60.3 77.5 59.6 77.4 59.5 77.3 59.5 77.3 59.5 77.1 59.2 76.7 59 76.4 58.9L71.1 57.2C71 57.2 70.9 57.2 70.9 57.1 73.7 54.4 78.1 54.1 80.9 56.5 82.7 58.1 83.8 60.2 84 62.6 84.2 65.2 83.4 67.7 81.6 69.7 77.2 74.8 69.6 75.6 64.7 71.5 64.6 71.4 64.5 71.4 64.5 71.4 63.2 69.1 62.6 66.4 62.6 63.8 62.6 55.5 68.8 48.8 76.4 48.8S90.2 55.5 90.2 63.8C90.2 71.3 86.4 80.1 75.6 80.1 71.5 80.1 67.5 77.4 65.4 73M77.7 61.6C77.8 61.6 77.9 61.6 78 61.7 78.2 61.9 78.1 62.3 77.8 62.6 77.6 62.8 77.3 62.9 77.2 62.9S77 62.9 76.9 62.8C76.7 62.6 76.8 62.2 77.1 61.9 77.3 61.7 77.5 61.6 77.7 61.6M77.5 60.7H77.7zM78.3 63.4C78.3 63.6 78.2 63.8 78.1 64 78 63.9 78 63.7 77.9 63.6 78.1 63.6 78.2 63.5 78.3 63.4M76.9 65.5C76.6 65.8 76.3 66 76 66 75.9 66 75.7 66 75.6 65.8 75.3 65.5 75.4 64.9 75.9 64.5 76.2 64.2 76.5 64 76.8 64 76.9 64 77.1 64 77.2 64.2 77.5 64.4 77.4 65 76.9 65.5M75.2 63.3S74.9 63.4 74.6 63.3L70.3 62C70 61.9 69.8 61.7 69.8 61.7L70.4 58.1H70.6C70.7 58.1 70.8 58.1 71 58.2L76.4 59.9C76.7 60 76.9 60.2 76.9 60.1zM73 64.9C73.3 64.6 73.6 64.4 73.9 64.4 74 64.4 74.2 64.4 74.3 64.6 74.6 64.9 74.5 65.5 74 65.9 73.7 66.2 73.4 66.4 73.1 66.4 73 66.4 72.8 66.4 72.7 66.2 72.5 65.9 72.7 65.4 73 64.9M72.9 63.7L73.1 63.8C73 63.8 73 63.8 72.9 63.9zM74.8 66.6C74.9 66.5 74.9 66.4 75 66.4 75.1 66.5 75.3 66.6 75.5 66.7 75.1 66.8 74.9 66.9 74.5 67 74.5 66.9 74.6 66.8 74.8 66.6M71.9 66.6C71.5 66.4 71.2 66.2 70.9 66 70.8 65.9 70.7 65.8 70.5 65.7H70.9C71.2 65.7 71.5 65.6 71.7 65.6 71.7 65.9 71.7 66.3 71.9 66.6M70.9 64.8C70.3 64.8 69.8 64.4 69.8 64.1 69.8 63.7 70.4 63.4 70.9 63.4S72 63.6 72 64 71.6 64.8 70.9 64.8M69.7 62.7C69.4 62.9 69.2 63.1 69.1 63.3 69 62.9 68.9 62.6 68.9 62.2V61.6C68.8 62 69.2 62.4 69.7 62.7M68.9 61.5C68.9 61 69 60.6 69.1 60.1zM94.5 71.4C94.5 78.5 90.9 86.8 80.8 86.8 76.6 86.8 73.2 83 72 81.5L69.3 78.3C71.2 79.7 73.5 80.5 75.9 80.5 80 80.5 83.7 79 86.3 76.4 89.2 73.5 90.8 69.1 90.8 63.8 90.8 62.3 90.6 60.9 90.2 59.6L90.9 60.9C93.2 65.4 94.5 67.6 94.5 71.4" fill="#d2d6dc" data-fill-palette-color="quaternary"></path></svg></g></svg></g><g></g></svg></g></svg></g></svg></g></svg></g><defs></defs></svg><rect width="342.85155851775386" height="342.85155851775386" fill="none" stroke="none" visibility="hidden"></rect></g></svg></g></svg>